<?xml version="1.0" encoding="iso-8859-1"?>
<!-- Uploaded to: SVG Repo, www.svgrepo.com, Generator: SVG Repo Mixer Tools -->
<svg fill="#000000" height="800px" width="800px" version="1.1" id="Layer_1" xmlns="http://www.w3.org/2000/svg" xmlns:xlink="http://www.w3.org/1999/xlink" 
	 viewBox="0 0 512 512" xml:space="preserve">
<g>
	<g>
		<path d="M446.991,190.993c0-51.525-20.208-99.827-56.902-136.007C353.403,18.812,304.827-0.691,253.247,0.019
			c-48.726,0.69-95.324,20.758-131.212,56.509c-35.89,35.755-56.132,82.278-56.996,130.999
			c-0.698,39.257,10.427,77.166,32.174,109.628c19.336,28.862,45.794,51.675,76.938,66.441v16.626h-2.326
			c-8.119,0-14.703,6.584-14.703,14.703v51.185c0,8.119,6.584,14.703,14.703,14.703h12.314v36.482
			c0,8.119,6.584,14.703,14.703,14.703h114.316c8.119,0,14.703-6.584,14.703-14.703v-36.482h12.314
			c8.119,0,14.703-6.584,14.703-14.703v-51.185c0-8.119-6.584-14.703-14.703-14.703h-2.326V363.6
			C404.472,332.049,446.991,265.346,446.991,190.993z M298.455,482.595h-84.91v-21.779h84.91V482.595z M325.471,431.408h-12.314
			H198.842h-12.314v-21.779h2.326h134.291h2.326V431.408z M317.542,340.44c-5.506,2.27-9.098,7.637-9.098,13.593v26.19h-37.741
			v-79.098l49.633-68.751c4.752-6.585,3.268-15.775-3.315-20.528c-6.583-4.748-15.773-3.27-20.528,3.315L256,271.252l-40.492-56.09
			c-4.753-6.584-13.943-8.066-20.528-3.315c-6.584,4.753-8.068,13.943-3.315,20.528l49.633,68.751v79.098h-37.74v-26.19
			c0-5.956-3.592-11.323-9.098-13.593c-61.951-25.543-101.209-85.36-100.018-152.39C95.945,103.26,168.86,30.619,253.662,29.422
			c43.608-0.631,84.746,15.898,115.783,46.503c31.045,30.61,48.142,71.476,48.142,115.068
			C417.587,256.721,378.317,315.383,317.542,340.44z"/>
	</g>
</g>
<g>
	<g>
		<path d="M348.643,185.134c-0.191-0.94-0.47-1.869-0.838-2.749c-0.368-0.897-0.823-1.75-1.353-2.542
			c-0.528-0.81-1.145-1.56-1.822-2.236c-3.411-3.411-8.498-4.984-13.277-4.012c-0.943,0.191-1.853,0.469-2.749,0.837
			c-0.882,0.368-1.735,0.825-2.529,1.353c-0.81,0.529-1.56,1.147-2.236,1.823c-2.749,2.735-4.308,6.528-4.308,10.395
			s1.558,7.66,4.308,10.394c0.676,0.676,1.425,1.295,2.235,1.838c0.794,0.529,1.647,0.985,2.529,1.353
			c0.882,0.353,1.807,0.647,2.749,0.825c0.954,0.191,1.926,0.294,2.882,0.294c0.954,0,1.926-0.103,2.867-0.294
			c0.941-0.176,1.867-0.471,2.749-0.825c0.895-0.368,1.748-0.823,2.542-1.353c0.809-0.543,1.558-1.161,2.236-1.838
			c2.733-2.733,4.308-6.527,4.308-10.394C348.937,187.045,348.834,186.073,348.643,185.134z"/>
	</g>
</g>
<g>
	<g>
		<path d="M192.19,185.132c-0.19-0.94-0.472-1.867-0.84-2.749c-0.368-0.897-0.825-1.75-1.354-2.542
			c-0.543-0.81-1.161-1.56-1.838-2.236c-0.676-0.676-1.426-1.294-2.235-1.823c-0.794-0.528-1.647-0.985-2.529-1.353
			c-0.897-0.368-1.823-0.645-2.749-0.837c-1.897-0.384-3.852-0.384-5.749,0c-0.941,0.191-1.869,0.469-2.749,0.837
			c-0.897,0.368-1.748,0.825-2.542,1.353c-0.81,0.529-1.56,1.147-2.236,1.823s-1.294,1.426-1.823,2.236
			c-0.528,0.792-0.985,1.645-1.353,2.542c-0.368,0.882-0.645,1.808-0.837,2.749c-0.193,0.941-0.294,1.911-0.294,2.867
			c0,3.867,1.572,7.66,4.308,10.393c0.676,0.676,1.426,1.295,2.236,1.838c0.794,0.529,1.645,0.985,2.542,1.353
			c0.882,0.353,1.808,0.647,2.749,0.825c0.941,0.191,1.911,0.294,2.867,0.294c0.954,0,1.926-0.103,2.882-0.294
			c0.926-0.176,1.853-0.47,2.749-0.825c0.882-0.368,1.735-0.823,2.529-1.353c0.809-0.543,1.558-1.161,2.235-1.838
			c2.735-2.733,4.31-6.527,4.31-10.393C192.47,187.043,192.38,186.072,192.19,185.132z"/>
	</g>
</g>
</svg>