<?xml version="1.0" encoding="UTF-8"?>
<svg version="1.1" xmlns="http://www.w3.org/2000/svg" width="80" height="80">
<path d="M0 0 C3.94127027 2.13954672 7.17216655 4.75335033 9.90234375 8.27734375 C10.5101949 11.73653566 10.37554542 15.091492 10.21484375 18.58984375 C10.19228516 19.52119141 10.16972656 20.45253906 10.14648438 21.41210938 C10.08776453 23.70218335 10.00571233 25.9889225 9.90234375 28.27734375 C8.91234375 28.60734375 7.92234375 28.93734375 6.90234375 29.27734375 C6.79921875 30.16421875 6.69609375 31.05109375 6.58984375 31.96484375 C5.90234375 35.27734375 5.90234375 35.27734375 4.21484375 37.90234375 C2.61681897 40.13819008 2.61681897 40.13819008 3.44921875 42.234375 C5.46399629 45.0669789 7.69443535 45.91011266 10.83984375 47.33984375 C18.36538146 50.78714353 18.36538146 50.78714353 19.90234375 53.27734375 C19.90234375 55.91734375 19.90234375 58.55734375 19.90234375 61.27734375 C2.74234375 61.27734375 -14.41765625 61.27734375 -32.09765625 61.27734375 C-32.09765625 53.27734375 -32.09765625 53.27734375 -29.72265625 50.58984375 C-26.16644579 48.04847513 -22.17165908 46.31379639 -18.171875 44.5859375 C-15.9646019 43.45524057 -15.9646019 43.45524057 -15.18359375 41.3125 C-15.04358439 37.99682384 -17.26836031 35.93813785 -19.09765625 33.27734375 C-19.09765625 31.95734375 -19.09765625 30.63734375 -19.09765625 29.27734375 C-20.08765625 28.94734375 -21.07765625 28.61734375 -22.09765625 28.27734375 C-22.42765625 22.99734375 -22.75765625 17.71734375 -23.09765625 12.27734375 C-24.08765625 11.94734375 -25.07765625 11.61734375 -26.09765625 11.27734375 C-24.74657264 8.18724164 -23.30747692 6.30824222 -20.72265625 4.15234375 C-19.84480469 3.40597656 -19.84480469 3.40597656 -18.94921875 2.64453125 C-13.36049691 -1.48216209 -6.64117705 -2.28792878 0 0 Z M-18.09765625 6.27734375 C-18.75765625 6.68984375 -19.41765625 7.10234375 -20.09765625 7.52734375 C-21.43563061 9.86879888 -20.91526531 10.88547645 -20.28515625 13.46484375 C-19.89328125 14.72296875 -19.50140625 15.98109375 -19.09765625 17.27734375 C-18.40800781 16.6534375 -17.71835937 16.02953125 -17.0078125 15.38671875 C-13.78792145 13.05283799 -11.40553612 12.33460722 -7.53515625 11.52734375 C-6.42011719 11.285 -5.30507813 11.04265625 -4.15625 10.79296875 C2.0950043 9.73911745 2.0950043 9.73911745 5.15234375 11.77734375 C5.72984375 12.27234375 6.30734375 12.76734375 6.90234375 13.27734375 C6.78892841 10.86857118 6.78892841 10.86857118 5.90234375 8.27734375 C3.59754087 6.5776235 3.59754087 6.5776235 0.90234375 5.27734375 C0.32484375 4.72046875 -0.25265625 4.16359375 -0.84765625 3.58984375 C-6.90779109 0.05476509 -12.99915854 2.02859566 -18.09765625 6.27734375 Z M-6.09765625 13.46484375 C-7.12890625 13.72652344 -8.16015625 13.98820312 -9.22265625 14.2578125 C-12.06782844 15.26676622 -13.89037113 16.23712379 -16.09765625 18.27734375 C-17.67203093 22.05584299 -18.90315937 25.24927499 -17.328125 29.21484375 C-16.98394531 29.89546875 -16.63976562 30.57609375 -16.28515625 31.27734375 C-15.94871094 31.95796875 -15.61226562 32.63859375 -15.265625 33.33984375 C-13.13470039 36.87475548 -11.78366482 38.09948968 -7.72265625 39.15234375 C-3.63043008 39.293455 -2.24426004 38.81210791 0.90234375 36.27734375 C4.09005451 32.73544291 5.90234375 29.07328872 5.90234375 24.27734375 C5.69379064 22.58422183 5.43961979 20.8963992 5.15234375 19.21484375 C5.013125 18.33699219 4.87390625 17.45914062 4.73046875 16.5546875 C4.09093003 14.18829338 4.09093003 14.18829338 2.19921875 12.89453125 C-0.92955407 12.05380658 -2.98073049 12.63496227 -6.09765625 13.46484375 Z M-11.09765625 41.27734375 C-10.76765625 42.26734375 -10.43765625 43.25734375 -10.09765625 44.27734375 C-7.45765625 44.27734375 -4.81765625 44.27734375 -2.09765625 44.27734375 C-1.76765625 43.28734375 -1.43765625 42.29734375 -1.09765625 41.27734375 C-4.39765625 41.27734375 -7.69765625 41.27734375 -11.09765625 41.27734375 Z M-20.09765625 48.96484375 C-21.12890625 49.48433594 -22.16015625 50.00382812 -23.22265625 50.5390625 C-26.0125331 52.22587663 -28.03285581 53.76086821 -30.09765625 56.27734375 C-30.09765625 57.26734375 -30.09765625 58.25734375 -30.09765625 59.27734375 C-14.25765625 59.27734375 1.58234375 59.27734375 17.90234375 59.27734375 C16.52363603 53.76251289 13.54749045 52.23635179 8.90234375 49.27734375 C5.77808751 47.53328103 3.1305308 46.11988387 -0.53515625 46.58984375 C-1.30859375 46.93015625 -1.30859375 46.93015625 -2.09765625 47.27734375 C-2.09765625 48.92734375 -2.09765625 50.57734375 -2.09765625 52.27734375 C-4.73765625 52.27734375 -7.37765625 52.27734375 -10.09765625 52.27734375 C-10.09765625 50.62734375 -10.09765625 48.97734375 -10.09765625 47.27734375 C-14.11991554 45.62396313 -16.3829219 47.04711214 -20.09765625 48.96484375 Z M-8.09765625 47.27734375 C-8.09765625 48.26734375 -8.09765625 49.25734375 -8.09765625 50.27734375 C-6.77765625 50.27734375 -5.45765625 50.27734375 -4.09765625 50.27734375 C-4.09765625 49.28734375 -4.09765625 48.29734375 -4.09765625 47.27734375 C-5.41765625 47.27734375 -6.73765625 47.27734375 -8.09765625 47.27734375 Z " fill="#000000" transform="translate(46.09765625,9.72265625)"/>
<path d="M0 0 C0.99 0 1.98 0 3 0 C3 0.99 3 1.98 3 3 C2.01 3 1.02 3 0 3 C0 2.01 0 1.02 0 0 Z " fill="#000000" transform="translate(44,33)"/>
<path d="M0 0 C0.99 0 1.98 0 3 0 C3 0.99 3 1.98 3 3 C2.01 3 1.02 3 0 3 C0 2.01 0 1.02 0 0 Z " fill="#000000" transform="translate(33,33)"/>
<path d="M0 0 C0.66 0 1.32 0 2 0 C2 0.66 2 1.32 2 2 C1.34 2 0.68 2 0 2 C0 1.34 0 0.68 0 0 Z " fill="#000000" transform="translate(59,65)"/>
<path d="M0 0 C0.66 0 1.32 0 2 0 C2 0.66 2 1.32 2 2 C1.34 2 0.68 2 0 2 C0 1.34 0 0.68 0 0 Z " fill="#000000" transform="translate(55,65)"/>
<path d="M0 0 C0.66 0 1.32 0 2 0 C2 0.66 2 1.32 2 2 C1.34 2 0.68 2 0 2 C0 1.34 0 0.68 0 0 Z " fill="#000000" transform="translate(51,65)"/>
<path d="M0 0 C0.66 0 1.32 0 2 0 C2 0.66 2 1.32 2 2 C1.34 2 0.68 2 0 2 C0 1.34 0 0.68 0 0 Z " fill="#000000" transform="translate(47,65)"/>
<path d="M0 0 C0.66 0 1.32 0 2 0 C2 0.66 2 1.32 2 2 C1.34 2 0.68 2 0 2 C0 1.34 0 0.68 0 0 Z " fill="#000000" transform="translate(43,65)"/>
<path d="M0 0 C0.66 0 1.32 0 2 0 C2 0.66 2 1.32 2 2 C1.34 2 0.68 2 0 2 C0 1.34 0 0.68 0 0 Z " fill="#000000" transform="translate(39,65)"/>
<path d="M0 0 C0.66 0 1.32 0 2 0 C2 0.66 2 1.32 2 2 C1.34 2 0.68 2 0 2 C0 1.34 0 0.68 0 0 Z " fill="#000000" transform="translate(35,65)"/>
<path d="M0 0 C0.66 0 1.32 0 2 0 C2 0.66 2 1.32 2 2 C1.34 2 0.68 2 0 2 C0 1.34 0 0.68 0 0 Z " fill="#000000" transform="translate(31,65)"/>
<path d="M0 0 C0.66 0 1.32 0 2 0 C2 0.66 2 1.32 2 2 C1.34 2 0.68 2 0 2 C0 1.34 0 0.68 0 0 Z " fill="#000000" transform="translate(27,65)"/>
<path d="M0 0 C0.66 0 1.32 0 2 0 C2 0.66 2 1.32 2 2 C1.34 2 0.68 2 0 2 C0 1.34 0 0.68 0 0 Z " fill="#000000" transform="translate(23,65)"/>
<path d="M0 0 C0.66 0 1.32 0 2 0 C2 0.66 2 1.32 2 2 C1.34 2 0.68 2 0 2 C0 1.34 0 0.68 0 0 Z " fill="#000000" transform="translate(19,65)"/>
</svg>
